<?xml version="1.0" encoding="UTF-8"?>
<!DOCTYPE svg PUBLIC "-//W3C//DTD SVG 1.1//EN" "http://www.w3.org/Graphics/SVG/1.1/DTD/svg11.dtd">
<!-- Creator: CorelDRAW 2020 (64-Bit) -->
<svg xmlns="http://www.w3.org/2000/svg" xml:space="preserve" width="86.6986mm" height="86.6986mm" version="1.1" style="shape-rendering:geometricPrecision; text-rendering:geometricPrecision; image-rendering:optimizeQuality; fill-rule:evenodd; clip-rule:evenodd"
viewBox="0 0 8669.86 8669.86"
 xmlns:xlink="http://www.w3.org/1999/xlink"
 xmlns:xodm="http://www.corel.com/coreldraw/odm/2003">
 <defs>
  <style type="text/css">
   <![CDATA[
    .fil0 {fill:#626B99}
    .fil3 {fill:#393D5D;fill-rule:nonzero}
    .fil4 {fill:#626B99;fill-rule:nonzero}
    .fil5 {fill:#9BA4D3;fill-rule:nonzero}
    .fil1 {fill:#DADBED;fill-rule:nonzero}
    .fil2 {fill:white;fill-rule:nonzero}
   ]]>
  </style>
    <mask id="id0">
  <linearGradient id="id1" gradientUnits="userSpaceOnUse" x1="652.94" y1="8002.77" x2="5776.72" y2="8002.77">
   <stop offset="0" style="stop-opacity:1; stop-color:white"/>
   <stop offset="1" style="stop-opacity:0; stop-color:white"/>
  </linearGradient>
     <rect style="fill:url(#id1)" x="1388.54" y="7318.13" width="5197.07" height="684.7"/>
    </mask>
 </defs>
 <g id="Слой_x0020_1">
  <metadata id="CorelCorpID_0Corel-Layer"/>
  <g id="_1832060616240">
   <polygon class="fil0" style="mask:url(#id0)" points="1388.54,7318.13 6585.61,7318.13 6585.61,8002.83 1388.54,8002.83 "/>
   <rect class="fil1" x="908.89" y="0.03" width="5750.17" height="7609.74"/>
   <rect class="fil2" x="1388.51" y="455.52" width="4790.92" height="6698.74"/>
   <rect class="fil3" x="2114.66" y="3751.3" width="2012.27" height="289.38"/>
   <rect class="fil3" x="4448.52" y="3751.3" width="1004.82" height="289.38"/>
   <rect class="fil3" x="2114.66" y="4389.01" width="1004.82" height="289.38"/>
   <rect class="fil3" x="3443.7" y="4389.01" width="2012.27" height="289.38"/>
   <rect class="fil3" x="2114.66" y="5026.72" width="1420.14" height="289.38"/>
   <rect class="fil3" x="2114.68" y="5664.43" width="2173.04" height="289.38"/>
   <rect class="fil3" x="3859.04" y="5026.72" width="1594.27" height="289.38"/>
   <polygon class="fil2" points="3824.18,2508.01 3449.07,2248.09 3553.58,2095.37 3792.03,2258.83 4073.36,1926.55 4215.39,2047.12 "/>
   <polygon class="fil4" points="4509.56,2126.19 4509.56,2126.19 "/>
   <path class="fil4" d="M4301.3 2147.23l-229.3 257.39 0 0c-14.02,16.36 -32.77,28.07 -51.47,35.1l117 -0.04c39.79,0 79.54,-16.36 105.28,-44.44l0 0 229.3 -257.38c2.34,-2.34 4.69,-4.69 7.03,-7.03l-142.73 0c-14.06,0 -25.73,4.69 -35.11,16.4l0 0z"/>
   <path class="fil4" d="M3515.14 2226.78l0 870.4c0,32.76 28.08,60.84 60.84,60.84 32.76,0 60.84,-28.08 60.84,-60.84l0 -870.4c0,0 0,0 0,-2.35l0 0c0,-16.36 4.69,-32.76 11.72,-46.78 11.72,-21.04 28.08,-37.45 49.12,-46.78l-86.57 0c-53.81,-0.04 -95.95,42.1 -95.95,95.91z"/>
   <path class="fil4" d="M3641.51 2226.78c0,0 0,0 0,0l0 0 0 0z"/>
   <path class="fil4" d="M3037.82 2554.33c67.88,142.73 175.5,259.73 311.2,339.27l0 -102.93c0,-28.08 -11.72,-53.81 -32.77,-72.52 -149.76,-128.67 -236.33,-315.88 -236.33,-514.76 0,-182.48 72.51,-350.95 201.23,-479.66 128.66,-128.67 301.82,-198.89 482,-196.54 140.38,2.34 273.74,44.43 388.39,126.32 109.97,79.55 194.2,187.17 240.98,313.54 30.42,0 56.16,-16.36 72.52,-42.09 16.36,-25.74 16.36,-58.5 2.34,-86.58 -77.2,-145.07 -198.89,-269.05 -346.3,-343.96 -112.31,-58.5 -236.34,-86.57 -365.01,-86.57 -46.78,0 -93.6,4.68 -140.38,11.71 -147.42,25.74 -294.79,107.63 -418.82,231.65 -124.03,124.03 -203.57,271.4 -229.31,418.82 -25.64,166.12 -2.25,334.59 70.26,484.3z"/>
   <path class="fil4" d="M3742.1 2130.83c-35.11,0 -65.53,18.7 -84.23,49.12l215.24 215.25c25.74,28.08 60.84,44.44 95.95,44.44 32.77,0 63.19,-11.72 86.58,-35.11l-248.01 -248.01c-18.75,-16.32 -42.14,-25.69 -65.53,-25.69z"/>
   <polygon class="fil4" points="3809.97,2154.26 3809.97,2154.26 "/>
   <path class="fil4" d="M4509.56 2130.83c-11.72,0 -23.39,4.69 -32.76,14.01l-2.35 2.35 -39.79 44.44 0 14.01c0,327.56 -233.99,608.33 -556.86,666.83 -44.44,7.03 -77.2,46.78 -77.2,93.6l0 39.8c203.57,-11.72 393.08,-98.25 535.81,-245.67 142.73,-149.76 222.28,-346.3 222.28,-552.17 0,-9.37 0,-18.7 0,-30.42 -2.35,-28.03 -23.39,-46.78 -49.13,-46.78z"/>
   <path class="fil5" d="M5593.25 5638.7c0,0 54.54,881.65 -995.27,749.82 0,1581.49 1581.49,2281.33 1581.49,2281.33 0,0 1581.49,-699.84 1581.49,-2281.33 -1049.8,131.83 -995.27,-749.82 -995.27,-749.82l-1172.44 0z"/>
   <polygon class="fil2" points="6165.82,7647.36 5529.61,7206.53 5706.87,6947.52 6111.28,7224.74 6588.43,6661.19 6829.33,6865.68 "/>
   <polygon class="fil1" points="2807.45,424.95 2807.45,1171.55 2461.6,967.33 2114.65,1171.55 2114.65,424.95 "/>
  </g>
 </g>
</svg>
