<?xml version="1.0" encoding="UTF-8"?>
<!DOCTYPE svg PUBLIC "-//W3C//DTD SVG 1.1//EN" "http://www.w3.org/Graphics/SVG/1.1/DTD/svg11.dtd">
<!-- Creator: CorelDRAW 2020 (64-Bit) -->
<svg xmlns="http://www.w3.org/2000/svg" xml:space="preserve" width="86.6986mm" height="86.6986mm" version="1.1" style="shape-rendering:geometricPrecision; text-rendering:geometricPrecision; image-rendering:optimizeQuality; fill-rule:evenodd; clip-rule:evenodd"
viewBox="0 0 8669.86 8669.86"
 xmlns:xlink="http://www.w3.org/1999/xlink"
 xmlns:xodm="http://www.corel.com/coreldraw/odm/2003">
 <defs>
  <style type="text/css">
   <![CDATA[
    .fil4 {fill:#626B99}
    .fil2 {fill:#626B99;fill-rule:nonzero}
    .fil0 {fill:#9BA4D3;fill-rule:nonzero}
    .fil3 {fill:#DADBED;fill-rule:nonzero}
    .fil1 {fill:#FEFEFE;fill-rule:nonzero}
   ]]>
  </style>
 </defs>
 <g id="Слой_x0020_1">
  <metadata id="CorelCorpID_0Corel-Layer"/>
  <g id="_1832067433280">
   <g>
    <path class="fil0" d="M4336.73 1368.07l0 0c-201.27,-791.37 -818.25,-1368.05 -1542.47,-1368.05 -724.2,0 -1341.43,576.68 -1542.44,1368.05l-0.26 0 -925.47 3836.25 4949.53 0 -938.89 -3836.25z"/>
    <polygon class="fil1" points="2096.94,4399.23 3464.99,4399.23 3464.99,3366.29 2096.94,3366.29 "/>
    <path class="fil1" d="M3934.44 2427.63c0,-807.6 -510.52,-1462.08 -1140.18,-1462.08 -629.64,0 -1140.17,654.48 -1140.17,1462.08 0,807.62 510.53,1462.1 1140.17,1462.1 629.66,0 1140.18,-654.48 1140.18,-1462.1z"/>
    <path class="fil2" d="M3438.12 4399.49l-1314.57 0c-1354.89,0 -2454.75,1099.88 -2454.75,2454.75l0 596.56 988.76 0 0 1140.58 4001.33 0 0 -864.62 1233.97 0 0 -872.52c13.43,-1354.87 -1086.69,-2454.75 -2454.74,-2454.75z"/>
   </g>
   <g>
    <polygon class="fil3" points="8441.47,1232.12 7892.35,851.62 8045.34,628.07 8394.41,867.33 8806.26,380.92 9014.16,557.41 "/>
    <polygon class="fil3" points="8441.47,2370.74 7892.35,1990.23 8045.34,1766.68 8394.41,2005.95 8806.26,1519.54 9014.16,1696.03 "/>
    <polygon class="fil3" points="8441.47,3509.35 7892.35,3128.87 8045.34,2905.3 8394.41,3144.59 8806.26,2658.17 9014.16,2834.66 "/>
    <polygon class="fil3" points="7606,943.66 5615.67,940.32 5615,669.42 7606.25,669.39 "/>
    <polygon class="fil3" points="7606,2082.27 5615.67,2078.94 5615,1808.04 7606.25,1808 "/>
    <polygon class="fil3" points="7606,3220.91 5615.67,3217.58 5615,2946.67 7606.25,2946.64 "/>
   </g>
   <path class="fil4" d="M-146.99 6766.75c-103.23,46.38 -109.27,96.92 -133.01,257.82 -23.74,160.91 -65.18,432.15 -64.24,627.83 0.95,195.67 44.3,315.81 102.32,434.5 58.04,118.7 130.75,235.95 242.28,325.92 111.56,89.96 261.95,152.64 379.94,190.45 117.98,37.81 203.59,50.77 956.62,59.01 753.03,8.23 2173.5,11.74 2952.31,0.3 778.82,-11.44 915.98,-37.83 1061.05,-111.69 145.07,-73.85 298.07,-195.18 393.02,-332.32 94.96,-137.16 131.88,-290.16 147.13,-482.52 15.27,-192.36 8.84,-424.1 -7.35,-544.89 -16.18,-120.81 -42.15,-130.64 -55.14,-135.56 -12.97,-4.93 -12.97,-4.93 -743.25,-97.78 -730.27,-92.86 -2190.79,-278.58 -3100.42,-347.69 -909.63,-69.12 -1268.35,-21.64 -1547.95,23.2 -279.6,44.84 -480.05,87.03 -583.31,133.42z"/>
  </g>
 </g>
</svg>
