<svg width="52" height="52" viewBox="0 0 52 52" fill="none" xmlns="http://www.w3.org/2000/svg"><g clip-path="url(#clip0)"><path d="M42.154 4.864a2.377 2.377 0 100-4.754 2.377 2.377 0 000 4.754z" fill="#9BA4D3"/><path fill-rule="evenodd" clip-rule="evenodd" d="M38.569 9.294l.967.927c.756-.356 1.842-1.979 2.618-2.443.789.53 1.905 2.104 2.64 2.464.258-.376.571-.689.947-.946-.151-.314-3.069-3.39-3.587-3.392-.51-.003-1.566 1.242-1.878 1.554-.415.417-1.487 1.332-1.707 1.836zM41.11 19.68l1.324.56c.32-.36.422-1.165.459-1.693l-1.52-.127-.263 1.26zm-.996 3.135c.495-.186 1.17-.714 1.387-1.15-.53-.296-.632-.566-1.072-.95l-1.025.805.71 1.295zm1.261-5.87h1.55l-.012-1.54-1.48.01-.058 1.53zm-4.574 6.575l1.564-.078c.103-.402-.053-1.166-.232-1.495l-1.339.035.007 1.538zm4.579-9.638l1.544-.001-.013-1.53-1.478-.001-.053 1.532z" fill="#9BA4D3"/><path fill-rule="evenodd" clip-rule="evenodd" d="M41.384 10.812l1.54.007-.016-1.531-1.474-.004-.05 1.528z" fill="#9BA4D3"/><path d="M32.441 13.014c-.671 5.15-3.4 8.855-7.587 8.86-4.186.005-7.008-3.379-7.552-8.891-.508-4.866 3.4-8.856 7.587-8.86 4.186-.007 8.2 4.052 7.552 8.89z" fill="#fff"/><path d="M16.964 13.463s1.066-3.336 4.305-5.673c4.738 4.009 9.28 3.633 10.743 3.646 3.303-.003 4.57-5.91 4.57-5.91s-2.364-.777-5.727-3.528C27.942-.372 24.65-.524 20.11.964c-5.063 2.234-5.803 6.552-3.146 12.499z" fill="#9BA4D3"/><path d="M28.32 17.77l-.002 7.644-3.593 6.662-3.253-6.497.05-7.806 6.799-.004z" fill="#fff"/><path d="M43.533 28.88c-2.65 3.402-6.232 6.124-10.474 7.692-3.162-.179-2.99-2.929-2.989-2.937l.084-1.69H19.639l.084 1.69c0 .009.18 2.879-3.2 2.945a23.835 23.835 0 01-10.264-7.4 50.04 50.04 0 0110.133-3.16c9.465-1.81 18.833-.624 27.141 2.86zm-13.26 8.53c-.3.07-.604.136-.91.196a23.713 23.713 0 01-9.914-.15c2.04-1.312 1.881-3.897 1.881-3.897h7.133s-.155 2.525 1.81 3.851z" fill="#9BA4D3"/><path d="M21.33 33.559s.332 5.364-6.055 4.562c0 9.621 9.621 13.88 9.621 13.88s9.622-4.259 9.622-13.88c-6.387.802-6.055-4.562-6.055-4.562H21.33z" fill="#DADBED"/><path d="M24.813 45.78l-3.87-2.683 1.078-1.575 2.46 1.686 2.904-3.428 1.465 1.244-4.037 4.755z" fill="#393D5D"/></g><defs><clipPath id="clip0"><path fill="#fff" d="M0 0h52v52H0z"/></clipPath></defs></svg>