<?xml version="1.0" encoding="UTF-8"?>
<!DOCTYPE svg PUBLIC "-//W3C//DTD SVG 1.1//EN" "http://www.w3.org/Graphics/SVG/1.1/DTD/svg11.dtd">
<!-- Creator: CorelDRAW 2020 (64-Bit) -->
<svg xmlns="http://www.w3.org/2000/svg" xml:space="preserve" width="86.6986mm" height="86.6986mm" version="1.1" style="shape-rendering:geometricPrecision; text-rendering:geometricPrecision; image-rendering:optimizeQuality; fill-rule:evenodd; clip-rule:evenodd"
viewBox="0 0 8669.86 8669.86"
 xmlns:xlink="http://www.w3.org/1999/xlink"
 xmlns:xodm="http://www.corel.com/coreldraw/odm/2003">
 <defs>
  <style type="text/css">
   <![CDATA[
    .fil4 {fill:none}
    .fil3 {fill:#626B99}
    .fil0 {fill:#393D5D;fill-rule:nonzero}
    .fil2 {fill:#9BA4D3;fill-rule:nonzero}
    .fil1 {fill:white;fill-rule:nonzero}
   ]]>
  </style>
    <clipPath id="id0">
     <path d="M-1047.3 4424.1c-32.42,75.9 -56.07,164.54 -75,276.88 -88.77,526.62 -183.39,1047.16 -262.15,1574.79 -48.57,325.33 14.46,514.55 201.5,675.06 223.65,191.89 428.7,158.26 762.77,159.87 612.35,2.94 1225.44,0.37 1837.84,-0.4 -7.23,382.91 -174.28,578.72 11.07,994.86 305.16,685.1 1057.6,556.77 1738.53,552.5 501.1,-3.12 3164.31,31.91 3426.65,-28.78 314,-72.64 519.37,-270.12 635.89,-509.28 199.12,-408.68 22.88,-630.65 17.93,-1008.92 604.64,-6.25 1211.45,3.97 1816.41,0.18 315.3,-1.99 553.69,31.67 771.75,-150.97 181.56,-152.09 269.3,-336.04 221.23,-665.53 -44.68,-306.35 -226.58,-1575.27 -348.77,-1877.43l-1026.16 -556.82 -5.4 748.92 -188 768.86 -324.35 -622.44 243.5 -451.84 -714.62 0 243.5 451.84 -324.35 622.44 -118.19 -760.84 2.83 -743.49 -1304.3 648.87 -1093.64 -576.65 2.83 743.52 -328.85 973.51 -324.36 -907.36 243.51 -451.84 -714.63 0 243.51 451.84 -314.96 892.37 -338.25 -958.52 2.83 -743.52 -1055.45 594.34 -1263.31 -672.94 2.84 743.52 -192.72 767.19 -324.35 -622.44 243.5 -451.84 -714.62 0 243.51 451.84 -324.36 622.44 -127.7 -765.39 17.77 -741.24 -1123.21 552.84z"/>
    </clipPath>
 </defs>
 <g id="Слой_x0020_1">
  <metadata id="CorelCorpID_0Corel-Layer"/>
  <g id="_1832108601024">
   <polygon class="fil0" points="3844.05,4538.38 3842.26,4562.63 3832.58,4540.33 "/>
   <polygon class="fil1" points="5101.98,3356.74 5086.25,5549.85 4289.47,6580.42 3567.98,5569.62 3592.56,3351.46 "/>
   <path class="fil1" d="M5683.29 2287.48c-122.64,901.84 -604.55,1548.54 -1338.14,1545.31 -733.58,-3.23 -1224.78,-598.96 -1314.79,-1565.44 -84.31,-853.18 604.55,-1548.54 1338.14,-1545.31 733.55,3.04 1433.18,718.22 1314.79,1565.44z"/>
   <path class="fil2" d="M2970.7 2351.18c0,0 190,-583.61 759.98,-989.88 826.23,707.02 1622.74,645.66 1878.96,649.39 578.84,2.66 806.64,-1031.31 806.64,-1031.31 0,0 -413.52,-138.33 -1000.25,-623.76 -508.07,-418.04 -1084.67,-447.92 -1881.8,-191.64 -889.46,386.62 -1023.37,1142.4 -563.53,2187.2z"/>
   <polygon class="fil0" points="276.37,4421.78 274.98,4440.7 267.42,4423.3 "/>
   <polygon class="fil1" points="1258.13,3499.56 1245.85,5211.18 624,6015.5 60.91,5226.62 80.1,3495.44 "/>
   <path class="fil1" d="M1711.82 2665.06c-95.72,703.84 -471.83,1208.56 -1044.36,1206.04 -572.53,-2.52 -955.88,-467.46 -1026.14,-1221.75 -65.79,-665.87 471.83,-1208.57 1044.36,-1206.05 572.5,2.37 1118.54,560.54 1026.14,1221.76z"/>
   <path class="fil2" d="M-405.24 2714.77c0,0 148.29,-455.48 593.13,-772.55 644.84,551.79 1266.48,503.9 1466.44,506.82 451.77,2.07 629.55,-804.9 629.55,-804.9 0,0 -322.73,-107.96 -780.65,-486.81 -396.52,-326.26 -846.54,-349.59 -1468.66,-149.57 -694.18,301.74 -798.69,891.59 -439.81,1707.01z"/>
   <polygon class="fil0" points="7702.99,4421.78 7701.6,4440.7 7694.04,4423.3 "/>
   <polygon class="fil1" points="8684.75,3499.56 8672.48,5211.18 8050.63,6015.5 7487.53,5226.62 7506.72,3495.44 "/>
   <path class="fil1" d="M9138.44 2665.06c-95.72,703.84 -471.83,1208.56 -1044.36,1206.04 -572.53,-2.52 -955.88,-467.46 -1026.14,-1221.75 -65.79,-665.87 471.83,-1208.57 1044.36,-1206.05 572.51,2.37 1118.54,560.54 1026.14,1221.76z"/>
   <path class="fil2" d="M7021.38 2714.77c0,0 148.29,-455.48 593.13,-772.55 644.84,551.79 1266.48,503.9 1466.45,506.82 451.76,2.07 629.55,-804.9 629.55,-804.9 0,0 -322.74,-107.96 -780.66,-486.81 -396.52,-326.26 -846.53,-349.59 -1468.65,-149.57 -694.19,301.74 -798.7,891.59 -439.82,1707.01z"/>
   <path class="fil3" d="M-1047.3 4424.1c-32.42,75.9 -56.07,164.54 -75,276.88 -88.77,526.62 -183.39,1047.16 -262.15,1574.79 -48.57,325.33 14.46,514.55 201.5,675.06 223.65,191.89 428.7,158.26 762.77,159.87 612.35,2.94 1225.44,0.37 1837.84,-0.4 -7.23,382.91 -174.28,578.72 11.07,994.86 305.16,685.1 1057.6,556.77 1738.53,552.5 501.1,-3.12 3164.31,31.91 3426.65,-28.78 314,-72.64 519.37,-270.12 635.89,-509.28 199.12,-408.68 22.88,-630.65 17.93,-1008.92 604.64,-6.25 1211.45,3.97 1816.41,0.18 315.3,-1.99 553.69,31.67 771.75,-150.97 181.56,-152.09 269.3,-336.04 221.23,-665.53 -44.68,-306.35 -226.58,-1575.27 -348.77,-1877.43l-1026.16 -556.82 -5.4 748.92 -188 768.86 -324.35 -622.44 243.5 -451.84 -714.62 0 243.5 451.84 -324.35 622.44 -118.19 -760.84 2.83 -743.49 -1304.3 648.87 -1093.64 -576.65 2.83 743.52 -328.85 973.51 -324.36 -907.36 243.51 -451.84 -714.63 0 243.51 451.84 -314.96 892.37 -338.25 -958.52 2.83 -743.52 -1055.45 594.34 -1263.31 -672.94 2.84 743.52 -192.72 767.19 -324.35 -622.44 243.5 -451.84 -714.62 0 243.51 451.84 -324.36 622.44 -127.7 -765.39 17.77 -741.24 -1123.21 552.84z"/>
   <g style="clip-path:url(#id0)">
    <g>
     <g>
      <polygon id="1" class="fil3" points="4318.05,7257.31 4351.92,7257.31 6226.33,7257.31 6226.33,4540.12 5099.17,3945.78 5102,4689.3 4773.15,5662.81 4754.32,5632.83 4448.79,4755.45 4692.3,4303.61 4351.92,4294.92 4351.92,4294.05 4335,4294.47 4318.05,4294.05 4318.05,4294.92 3977.67,4303.61 4221.18,4755.45 3915.65,5632.83 3896.82,5662.81 3567.97,4689.3 3570.8,3945.78 2443.64,4540.12 2443.64,7257.31 "/>
      <polygon class="fil3" points="8033.69,7257.31 8067.56,7257.31 9941.98,7257.31 9941.98,4540.12 8814.81,3945.78 8817.65,4689.3 8488.79,5662.81 8469.96,5632.83 8164.44,4755.45 8407.94,4303.61 8067.56,4294.92 8067.56,4294.05 8050.64,4294.47 8033.69,4294.05 8033.69,4294.92 7693.32,4303.61 7936.82,4755.45 7631.29,5632.83 7612.47,5662.81 7283.61,4689.3 7286.44,3945.78 6159.28,4540.12 6159.28,7257.31 "/>
      <polygon class="fil3" points="607.07,7257.31 640.94,7257.31 2515.35,7257.31 2515.35,4540.12 1388.19,3945.78 1391.02,4689.3 1062.16,5662.81 1043.34,5632.83 737.81,4755.45 981.31,4303.61 640.94,4294.92 640.94,4294.05 624.02,4294.47 607.07,4294.05 607.07,4294.92 266.69,4303.61 510.2,4755.45 204.67,5632.83 185.84,5662.81 -143.02,4689.3 -140.18,3945.78 -1267.35,4540.12 -1267.35,7257.31 "/>
     </g>
    </g>
   </g>
   <path class="fil4" d="M-1047.3 4424.1c-32.42,75.9 -56.07,164.54 -75,276.88 -88.77,526.62 -183.39,1047.16 -262.15,1574.79 -48.57,325.33 14.46,514.55 201.5,675.06 223.65,191.89 428.7,158.26 762.77,159.87 612.35,2.94 1225.44,0.37 1837.84,-0.4 -7.23,382.91 -174.28,578.72 11.07,994.86 305.16,685.1 1057.6,556.77 1738.53,552.5 501.1,-3.12 3164.31,31.91 3426.65,-28.78 314,-72.64 519.37,-270.12 635.89,-509.28 199.12,-408.68 22.88,-630.65 17.93,-1008.92 604.64,-6.25 1211.45,3.97 1816.41,0.18 315.3,-1.99 553.69,31.67 771.75,-150.97 181.56,-152.09 269.3,-336.04 221.23,-665.53 -44.68,-306.35 -226.58,-1575.27 -348.77,-1877.43l-1026.16 -556.82 -5.4 748.92 -188 768.86 -324.35 -622.44 243.5 -451.84 -714.62 0 243.5 451.84 -324.35 622.44 -118.19 -760.84 2.83 -743.49 -1304.3 648.87 -1093.64 -576.65 2.83 743.52 -328.85 973.51 -324.36 -907.36 243.51 -451.84 -714.63 0 243.51 451.84 -314.96 892.37 -338.25 -958.52 2.83 -743.52 -1055.45 594.34 -1263.31 -672.94 2.84 743.52 -192.72 767.19 -324.35 -622.44 243.5 -451.84 -714.62 0 243.51 451.84 -324.36 622.44 -127.7 -765.39 17.77 -741.24 -1123.21 552.84z"/>
  </g>
 </g>
</svg>
