<svg xmlns="http://www.w3.org/2000/svg" width="327.68" height="327.68" viewBox="0 0 8669.86 8669.86" shape-rendering="geometricPrecision" text-rendering="geometricPrecision" image-rendering="optimizeQuality" fill-rule="evenodd" clip-rule="evenodd"><defs><clipPath id="id0"><path d="M-1047.3 4424.1c-32.42 75.9-56.07 164.54-75 276.88-88.77 526.62-183.39 1047.16-262.15 1574.79-48.57 325.33 14.46 514.55 201.5 675.06 223.65 191.89 428.7 158.26 762.77 159.87 612.35 2.94 1225.44.37 1837.84-.4-7.23 382.91-174.28 578.72 11.07 994.86 305.16 685.1 1057.6 556.77 1738.53 552.5 501.1-3.12 3164.31 31.91 3426.65-28.78 314-72.64 519.37-270.12 635.89-509.28 199.12-408.68 22.88-630.65 17.93-1008.92 604.64-6.25 1211.45 3.97 1816.41.18 315.3-1.99 553.69 31.67 771.75-150.97 181.56-152.09 269.3-336.04 221.23-665.53-44.68-306.35-226.58-1575.27-348.77-1877.43l-1026.16-556.82-5.4 748.92-188 768.86-324.35-622.44 243.5-451.84h-714.62l243.5 451.84-324.35 622.44-118.19-760.84 2.83-743.49-1304.3 648.87-1093.64-576.65 2.83 743.52-328.85 973.51-324.36-907.36 243.51-451.84h-714.63l243.51 451.84-314.96 892.37-338.25-958.52 2.83-743.52-1055.45 594.34-1263.31-672.94 2.84 743.52-192.72 767.19-324.35-622.44 243.5-451.84H266.69l243.51 451.84-324.36 622.44-127.7-765.39 17.77-741.24-1123.21 552.84z"/></clipPath><style>.fil3{fill:#626b99}.fil0{fill:#393d5d}.fil0,.fil1,.fil2{fill-rule:nonzero}.fil2{fill:#9ba4d3}.fil1{fill:#fff}</style></defs><g id="Слой_x0020_1"><g id="_1832108601024"><path class="fil0" d="M3844.05 4538.38l-1.79 24.25-9.68-22.3z"/><path class="fil1" d="M5101.98 3356.74l-15.73 2193.11-796.78 1030.57-721.49-1010.8 24.58-2218.16z"/><path class="fil1" d="M5683.29 2287.48c-122.64 901.84-604.55 1548.54-1338.14 1545.31-733.58-3.23-1224.78-598.96-1314.79-1565.44-84.31-853.18 604.55-1548.54 1338.14-1545.31 733.55 3.04 1433.18 718.22 1314.79 1565.44z"/><path class="fil2" d="M2970.7 2351.18s190-583.61 759.98-989.88c826.23 707.02 1622.74 645.66 1878.96 649.39 578.84 2.66 806.64-1031.31 806.64-1031.31s-413.52-138.33-1000.25-623.76C4907.96-62.42 4331.36-92.3 3534.23 163.98c-889.46 386.62-1023.37 1142.4-563.53 2187.2z"/><path class="fil0" d="M276.37 4421.78l-1.39 18.92-7.56-17.4z"/><path class="fil1" d="M1258.13 3499.56l-12.28 1711.62L624 6015.5 60.91 5226.62 80.1 3495.44z"/><path class="fil1" d="M1711.82 2665.06C1616.1 3368.9 1239.99 3873.62 667.46 3871.1c-572.53-2.52-955.88-467.46-1026.14-1221.75-65.79-665.87 471.83-1208.57 1044.36-1206.05 572.5 2.37 1118.54 560.54 1026.14 1221.76z"/><path class="fil2" d="M-405.24 2714.77s148.29-455.48 593.13-772.55c644.84 551.79 1266.48 503.9 1466.44 506.82 451.77 2.07 629.55-804.9 629.55-804.9s-322.73-107.96-780.65-486.81C1106.71 831.07 656.69 807.74 34.57 1007.76c-694.18 301.74-798.69 891.59-439.81 1707.01z"/><path class="fil0" d="M7702.99 4421.78l-1.39 18.92-7.56-17.4z"/><path class="fil1" d="M8684.75 3499.56l-12.27 1711.62-621.85 804.32-563.1-788.88 19.19-1731.18z"/><path class="fil1" d="M9138.44 2665.06c-95.72 703.84-471.83 1208.56-1044.36 1206.04-572.53-2.52-955.88-467.46-1026.14-1221.75-65.79-665.87 471.83-1208.57 1044.36-1206.05 572.51 2.37 1118.54 560.54 1026.14 1221.76z"/><path class="fil2" d="M7021.38 2714.77s148.29-455.48 593.13-772.55c644.84 551.79 1266.48 503.9 1466.45 506.82 451.76 2.07 629.55-804.9 629.55-804.9s-322.74-107.96-780.66-486.81c-396.52-326.26-846.53-349.59-1468.65-149.57-694.19 301.74-798.7 891.59-439.82 1707.01z"/><path class="fil3" d="M-1047.3 4424.1c-32.42 75.9-56.07 164.54-75 276.88-88.77 526.62-183.39 1047.16-262.15 1574.79-48.57 325.33 14.46 514.55 201.5 675.06 223.65 191.89 428.7 158.26 762.77 159.87 612.35 2.94 1225.44.37 1837.84-.4-7.23 382.91-174.28 578.72 11.07 994.86 305.16 685.1 1057.6 556.77 1738.53 552.5 501.1-3.12 3164.31 31.91 3426.65-28.78 314-72.64 519.37-270.12 635.89-509.28 199.12-408.68 22.88-630.65 17.93-1008.92 604.64-6.25 1211.45 3.97 1816.41.18 315.3-1.99 553.69 31.67 771.75-150.97 181.56-152.09 269.3-336.04 221.23-665.53-44.68-306.35-226.58-1575.27-348.77-1877.43l-1026.16-556.82-5.4 748.92-188 768.86-324.35-622.44 243.5-451.84h-714.62l243.5 451.84-324.35 622.44-118.19-760.84 2.83-743.49-1304.3 648.87-1093.64-576.65 2.83 743.52-328.85 973.51-324.36-907.36 243.51-451.84h-714.63l243.51 451.84-314.96 892.37-338.25-958.52 2.83-743.52-1055.45 594.34-1263.31-672.94 2.84 743.52-192.72 767.19-324.35-622.44 243.5-451.84H266.69l243.51 451.84-324.36 622.44-127.7-765.39 17.77-741.24-1123.21 552.84z"/><g clip-path="url(#id0)"><path id="1" class="fil3" d="M4318.05 7257.31h1908.28V4540.12l-1127.16-594.34 2.83 743.52-328.85 973.51-18.83-29.98-305.53-877.38 243.51-451.84-340.38-8.69v-.87l-16.92.42-16.95-.42v.87l-340.38 8.69 243.51 451.84-305.53 877.38-18.83 29.98-328.85-973.51 2.83-743.52-1127.16 594.34v2717.19z"/><path class="fil3" d="M8033.69 7257.31h1908.29V4540.12l-1127.17-594.34 2.84 743.52-328.86 973.51-18.83-29.98-305.52-877.38 243.5-451.84-340.38-8.69v-.87l-16.92.42-16.95-.42v.87l-340.37 8.69 243.5 451.84-305.53 877.38-18.82 29.98-328.86-973.51 2.83-743.52-1127.16 594.34v2717.19zm-7426.62 0h1908.28V4540.12l-1127.16-594.34 2.83 743.52-328.86 973.51-18.82-29.98-305.53-877.38 243.5-451.84-340.37-8.69v-.87l-16.92.42-16.95-.42v.87l-340.38 8.69 243.51 451.84-305.53 877.38-18.83 29.98-328.86-973.51 2.84-743.52-1127.17 594.34v2717.19z"/></g><path d="M-1047.3 4424.1c-32.42 75.9-56.07 164.54-75 276.88-88.77 526.62-183.39 1047.16-262.15 1574.79-48.57 325.33 14.46 514.55 201.5 675.06 223.65 191.89 428.7 158.26 762.77 159.87 612.35 2.94 1225.44.37 1837.84-.4-7.23 382.91-174.28 578.72 11.07 994.86 305.16 685.1 1057.6 556.77 1738.53 552.5 501.1-3.12 3164.31 31.91 3426.65-28.78 314-72.64 519.37-270.12 635.89-509.28 199.12-408.68 22.88-630.65 17.93-1008.92 604.64-6.25 1211.45 3.97 1816.41.18 315.3-1.99 553.69 31.67 771.75-150.97 181.56-152.09 269.3-336.04 221.23-665.53-44.68-306.35-226.58-1575.27-348.77-1877.43l-1026.16-556.82-5.4 748.92-188 768.86-324.35-622.44 243.5-451.84h-714.62l243.5 451.84-324.35 622.44-118.19-760.84 2.83-743.49-1304.3 648.87-1093.64-576.65 2.83 743.52-328.85 973.51-324.36-907.36 243.51-451.84h-714.63l243.51 451.84-314.96 892.37-338.25-958.52 2.83-743.52-1055.45 594.34-1263.31-672.94 2.84 743.52-192.72 767.19-324.35-622.44 243.5-451.84H266.69l243.51 451.84-324.36 622.44-127.7-765.39 17.77-741.24-1123.21 552.84z" fill="none"/></g></g></svg>