<svg xmlns="http://www.w3.org/2000/svg" width="327.68" height="327.68" viewBox="0 0 8669.86 8669.86" shape-rendering="geometricPrecision" text-rendering="geometricPrecision" image-rendering="optimizeQuality" fill-rule="evenodd" clip-rule="evenodd"><defs><style>.fil1,.fil2,.fil4{fill-rule:nonzero}.fil4{fill:#626b99}.fil1{fill:#dadbed}.fil2{fill:#fff}</style><mask id="id0"><linearGradient id="id1" gradientUnits="userSpaceOnUse" x1="652.94" y1="8002.77" x2="5776.72" y2="8002.77"><stop offset="0" stop-color="#fff"/><stop offset="1" stop-opacity="0" stop-color="#fff"/></linearGradient><path fill="url(#id1)" d="M1388.54 7318.13h5197.07v684.7H1388.54z"/></mask></defs><g id="Слой_x0020_1"><g id="_1832060616240"><path mask="url(#id0)" fill="#626b99" d="M1388.54 7318.13h5197.07v684.7H1388.54z"/><path class="fil1" d="M908.89.03h5750.17v7609.74H908.89z"/><path class="fil2" d="M1388.51 455.52h4790.92v6698.74H1388.51z"/><path d="M2114.66 3751.3h2012.27v289.38H2114.66zm2333.86 0h1004.82v289.38H4448.52zm-2333.86 637.71h1004.82v289.38H2114.66zm1329.04 0h2012.27v289.38H3443.7zm-1329.04 637.71H3534.8v289.38H2114.66zm.02 637.71h2173.04v289.38H2114.68zm1744.36-637.71h1594.27v289.38H3859.04z" fill="#393d5d" fill-rule="nonzero"/><path class="fil2" d="M3824.18 2508.01l-375.11-259.92 104.51-152.72 238.45 163.46 281.33-332.28 142.03 120.57z"/><path class="fil4" d="M4509.56 2126.19zm-208.26 21.04L4072 2404.62c-14.02 16.36-32.77 28.07-51.47 35.1l117-.04c39.79 0 79.54-16.36 105.28-44.44l229.3-257.38 7.03-7.03h-142.73c-14.06 0-25.73 4.69-35.11 16.4zm-786.16 79.55v870.4c0 32.76 28.08 60.84 60.84 60.84 32.76 0 60.84-28.08 60.84-60.84v-872.75c0-16.36 4.69-32.76 11.72-46.78 11.72-21.04 28.08-37.45 49.12-46.78h-86.57c-53.81-.04-95.95 42.1-95.95 95.91zm126.37 0z"/><path class="fil4" d="M3037.82 2554.33c67.88 142.73 175.5 259.73 311.2 339.27v-102.93c0-28.08-11.72-53.81-32.77-72.52-149.76-128.67-236.33-315.88-236.33-514.76 0-182.48 72.51-350.95 201.23-479.66 128.66-128.67 301.82-198.89 482-196.54 140.38 2.34 273.74 44.43 388.39 126.32 109.97 79.55 194.2 187.17 240.98 313.54 30.42 0 56.16-16.36 72.52-42.09 16.36-25.74 16.36-58.5 2.34-86.58-77.2-145.07-198.89-269.05-346.3-343.96-112.31-58.5-236.34-86.57-365.01-86.57-46.78 0-93.6 4.68-140.38 11.71-147.42 25.74-294.79 107.63-418.82 231.65-124.03 124.03-203.57 271.4-229.31 418.82-25.64 166.12-2.25 334.59 70.26 484.3z"/><path class="fil4" d="M3742.1 2130.83c-35.11 0-65.53 18.7-84.23 49.12l215.24 215.25c25.74 28.08 60.84 44.44 95.95 44.44 32.77 0 63.19-11.72 86.58-35.11l-248.01-248.01c-18.75-16.32-42.14-25.69-65.53-25.69zm67.87 23.43zm699.59-23.43c-11.72 0-23.39 4.69-32.76 14.01l-2.35 2.35-39.79 44.44v14.01c0 327.56-233.99 608.33-556.86 666.83-44.44 7.03-77.2 46.78-77.2 93.6v39.8c203.57-11.72 393.08-98.25 535.81-245.67 142.73-149.76 222.28-346.3 222.28-552.17v-30.42c-2.35-28.03-23.39-46.78-49.13-46.78z"/><path d="M5593.25 5638.7s54.54 881.65-995.27 749.82c0 1581.49 1581.49 2281.33 1581.49 2281.33s1581.49-699.84 1581.49-2281.33c-1049.8 131.83-995.27-749.82-995.27-749.82H5593.25z" fill="#9ba4d3" fill-rule="nonzero"/><path class="fil2" d="M6165.82 7647.36l-636.21-440.83 177.26-259.01 404.41 277.22 477.15-563.55 240.9 204.49z"/><path class="fil1" d="M2807.45 424.95v746.6L2461.6 967.33l-346.95 204.22v-746.6z"/></g></g></svg>