<svg xmlns="http://www.w3.org/2000/svg" width="327.68" height="327.68" viewBox="0 0 8669.86 8669.86" shape-rendering="geometricPrecision" text-rendering="geometricPrecision" image-rendering="optimizeQuality" fill-rule="evenodd" clip-rule="evenodd"><defs><style>.fil1{fill-rule:nonzero;fill:#fefefe}</style></defs><g id="Слой_x0020_1"><g id="_1832067433280"><path d="M4336.73 1368.07C4135.46 576.7 3518.48.02 2794.26.02c-724.2 0-1341.43 576.68-1542.44 1368.05h-.26L326.09 5204.32h4949.53l-938.89-3836.25z" fill="#9ba4d3" fill-rule="nonzero"/><path class="fil1" d="M2096.94 4399.23h1368.05V3366.29H2096.94z"/><path class="fil1" d="M3934.44 2427.63c0-807.6-510.52-1462.08-1140.18-1462.08-629.64 0-1140.17 654.48-1140.17 1462.08 0 807.62 510.53 1462.1 1140.17 1462.1 629.66 0 1140.18-654.48 1140.18-1462.1z"/><path d="M3438.12 4399.49H2123.55c-1354.89 0-2454.75 1099.88-2454.75 2454.75v596.56h988.76v1140.58h4001.33v-864.62h1233.97v-872.52c13.43-1354.87-1086.69-2454.75-2454.74-2454.75z" fill="#626b99" fill-rule="nonzero"/><path d="M8441.47 1232.12l-549.12-380.5 152.99-223.55 349.07 239.26 411.85-486.41 207.9 176.49zm0 1138.62l-549.12-380.51 152.99-223.55 349.07 239.27 411.85-486.41 207.9 176.49zm0 1138.61l-549.12-380.48 152.99-223.57 349.07 239.29 411.85-486.42 207.9 176.49zM7606 943.66l-1990.33-3.34-.67-270.9 1991.25-.03zm0 1138.61l-1990.33-3.33-.67-270.9 1991.25-.04zm0 1138.64l-1990.33-3.33-.67-270.91 1991.25-.03z" fill="#dadbed" fill-rule="nonzero"/><path d="M-146.99 6766.75c-103.23 46.38-109.27 96.92-133.01 257.82-23.74 160.91-65.18 432.15-64.24 627.83.95 195.67 44.3 315.81 102.32 434.5 58.04 118.7 130.75 235.95 242.28 325.92 111.56 89.96 261.95 152.64 379.94 190.45 117.98 37.81 203.59 50.77 956.62 59.01 753.03 8.23 2173.5 11.74 2952.31.3 778.82-11.44 915.98-37.83 1061.05-111.69 145.07-73.85 298.07-195.18 393.02-332.32 94.96-137.16 131.88-290.16 147.13-482.52 15.27-192.36 8.84-424.1-7.35-544.89-16.18-120.81-42.15-130.64-55.14-135.56-12.97-4.93-12.97-4.93-743.25-97.78-730.27-92.86-2190.79-278.58-3100.42-347.69-909.63-69.12-1268.35-21.64-1547.95 23.2-279.6 44.84-480.05 87.03-583.31 133.42z" fill="#626b99"/></g></g></svg>