<svg width="52" height="52" viewBox="0 0 52 52" fill="none" xmlns="http://www.w3.org/2000/svg"><g clip-path="url(#clip0)"><path fill-rule="evenodd" clip-rule="evenodd" d="M16.157 26.005l.328.24c.472.292.76.4 1.314.487 1.552.243 2.97-.625 3.537-2.044.023-.057.05-.17.075-.223.063-.13.14-.1.411-.189.158-.051.306-.087.456-.143l-.01-2.248-.002-.064-.01-1.917-.302-.242c-.256-.238-.128-.06-.494-.468l-.197-.223c-.101-.125-.236-.492-.286-.587l-.332-.807c-.065-.151-.12-.27-.117-.475.48-.367.959-1.386.979-2.087.022-.762-.076-1.28-.42-1.899-.111-.2-.29-.396-.312-.472.096-.122.828-.501 1.236-1.286.146-.282.267-.575.343-.918.1-.46-.003-.835.046-1.246.172-.08.937-.148 1.818-.643.258-.144.522-.293.734-.493.313-.295.371-.177 1.048-.177 1.493 0 .331-.115 1.78.671.36.195.922.417 1.331.525.094.024.142.047.228.065.047.01.088.013.128.023l.143.059c-.051 1.036-.018 1.361.378 2.134.41.799 1.124 1.139 1.239 1.286-.074.145-.219.289-.313.473-.163.32-.371.762-.403 1.145-.034.409-.07.7.008 1.068.05.233.196.687.296.869.054.1.078.165.134.258.604 1.007.682.248.286 1.42-.046.135-.008.053-.065.147l-.236.57c-.024.052-.048.091-.074.136l-.23.368c-.088.122-.062.14-.186.243l-.189.198-.199.219c-.072.08-.126.118-.207.187-.126.106-.119.107-.118.287.002.522-.02 1.087.005 1.604l-.011.057-.01 2.24c.28.093.578.165.846.263.306 1.031 1.08 1.862 2.044 2.19.568.192 1.227.262 1.87.107.832-.2 1.244-.659 1.405-.71.108-.177.868-.768 1.035-1.793a3.52 3.52 0 00.01-1.287c-.074-.518-.347-.927-.355-1.05.743-.542 1.158-1.662 1.127-2.64a3.393 3.393 0 00-.428-1.458c-.392-.647-.826-.9-.894-1.031.031-.074.195-.285.322-.555.098-.212.159-.396.241-.656.124-.391.09-1.235-.024-1.608-.311-1.018-.74-1.451-1.553-2.005.077-.212.734-.784.759-2.045.026-1.335-.59-1.853-.681-2.13.145-.249.283-.28.508-.793.15-.344.202-.723.15-1.106-.093-.69-.418-1.215-.931-1.658a5.075 5.075 0 00-1.649-.931c-.482-.158-1.027-.303-1.559-.356-.972-.096-.424.06-.98-.708-.397-.548-1.018-1.101-1.655-1.403C28.133.206 27.4 0 26 0c-1.7 0-3.287.46-4.507 1.626-.201.192-.31.327-.472.547-.228.312-.235.425-.363.656-.429.041-.754.058-1.155.133-.404.076-.665.16-1.022.274-1.149.366-2.392 1.275-2.583 2.582-.035.236-.008.38.008.59.022.272.023.141.056.277l.06.181c.027.053-.003-.023.029.059.174.44.35.525.51.8-.077.243-.7.772-.681 2.13.005.393.098.823.237 1.154.21.499.475.764.522.891-.407.277-.608.387-.948.813-.29.362-.454.704-.605 1.194-.255.824-.068 1.964.456 2.682.063.087.063.06.08.171-1.275 1.01-1.678 2.562-1.01 4.03.15.326.358.603.587.853.077.084.198.174.236.24-.165.427-.208.298-.374 1.024-.09.398-.053.918.028 1.31.159.77.554 1.284 1.068 1.788z" fill="#DADBED"/><path fill-rule="evenodd" clip-rule="evenodd" d="M16.157 26.005c-.112-.01-2.174.62-2.432.702-.238.075-2.247.657-2.388.73-.62.32-.79.868-.938 1.438l-.331 1.217c-.092.338-.468 1.723-.458 1.907l.699.836c.286.314 1.182 1.233 1.509 1.522.086.076.134.123.202.186l.602.508a18.83 18.83 0 001.683 1.256l2.253.187c4.477.562 4.26-2.88 4.26-2.89l-.084-1.692h3.13a2.734 2.734 0 01-.453-.808c-.272-.749-.124-1.305.063-1.994.18-.66.663-1.886.966-2.578.096-.22.29-.606.348-.818.085-.363.056-1.782.037-2.24-.242-.14-1.454-.331-2.407-1.485-.08-.097-.038-.083-.15-.104l.01 2.248c-.15.056-.298.092-.456.143-.27.088-.348.06-.41.19-.026.053-.053.165-.076.222-.566 1.42-1.985 2.287-3.537 2.044-.555-.087-.842-.195-1.314-.487l-.328-.24zm1.428 12.093c.94.415 1.927.784 3.037 1.07 2.631.677 5.505.877 8.219.499 2.121-.296 3.804-.79 5.575-1.57H33.29c-3.962-.62-3.718-4.569-3.718-4.569H27.3c-.308.525-.966 1.195-1.3 1.347-.337-.153-.985-.81-1.297-1.347h-2.275s.244 3.95-3.72 4.57h-1.123zm20.056-1.756c.905-.605 1.795-1.283 2.369-1.828.757-.72 1.353-1.29 2.041-2.1.125-.146.25-.29.338-.416.013-.193-.29-1.3-.365-1.545-.29-.947-.4-2.15-1.004-2.742-.158-.156-.296-.273-.576-.353-.117-.034-.233-.073-.366-.115-.211-.065-.116-.025-.339-.006-.062-.151-.017-.112-.412-.218l-1.456-.44c-.314-.103-.692-.202-1.007-.293-.319-.092-.662-.209-.984-.302-.161.05-.573.509-1.404.71a3.407 3.407 0 01-1.87-.108c-.964-.327-1.74-1.159-2.045-2.19-.268-.098-.566-.17-.845-.263l.009-2.24c-.12.017-.22.175-.29.246-.46.47-.898.788-1.493 1.054-.116.052-.702.242-.744.28-.063.113-.043 2-.001 2.21l.695 1.653c.23.569.437 1.14.626 1.753.216.697.316 1.267.07 2.009a2.3 2.3 0 01-.454.814h3.132l-.084 1.692c0 .01-.217 3.452 4.26 2.89l2.2-.152z" fill="#9BA4D3"/><path fill-rule="evenodd" clip-rule="evenodd" d="M24.788 25.714c-.059.212-.252.597-.348.818-.303.692-.786 1.919-.966 2.578-.187.689-.335 1.245-.063 1.994.126.349.292.611.453.808h4.27a2.3 2.3 0 00.453-.814c.247-.742.147-1.312-.069-2.01a21.8 21.8 0 00-.626-1.752l-.695-1.652c-.16-.16.007-1.741-.07-2.203-.148 0-.354.084-.5.102-.827.102-1.443-.084-1.764-.088-.009.303.063 2.096-.075 2.22zm-.085 7.814c.312.537.96 1.194 1.297 1.347.334-.152.992-.822 1.3-1.347h-2.597z" fill="#DADBED"/><path fill-rule="evenodd" clip-rule="evenodd" d="M22.266 21.822l.003.063c.111.021.069.007.149.104.953 1.154 2.165 1.345 2.407 1.484.019.46.048 1.878-.037 2.241.138-.123.066-1.916.075-2.219.321.004.937.19 1.764.088.146-.018.352-.101.5-.102.077.462-.09 2.042.07 2.203-.041-.21-.062-2.098.001-2.211.042-.038.628-.228.744-.28a4.603 4.603 0 001.493-1.054c.07-.071.17-.23.29-.246l.011-.057c-.025-.517-.003-1.082-.005-1.604 0-.18-.008-.181.118-.287.08-.07.135-.107.207-.187l.2-.218.188-.2c.124-.101.098-.12.185-.242l.231-.368c.026-.045.05-.083.074-.136l.236-.57c.057-.094.019-.012.065-.147.396-1.172.318-.413-.286-1.42-.056-.093-.08-.158-.135-.258-.099-.182-.245-.636-.295-.869-.079-.368-.042-.66-.008-1.068.032-.383.24-.826.403-1.145.094-.184.24-.328.313-.473-.115-.147-.829-.487-1.239-1.286-.396-.773-.43-1.098-.378-2.134l-.143-.06c-.04-.01-.08-.013-.128-.022-.086-.018-.134-.04-.228-.065a6.874 6.874 0 01-1.33-.525c-1.45-.786-.288-.67-1.781-.671-.677 0-.735-.118-1.048.177-.212.2-.476.35-.734.494-.88.494-1.646.563-1.818.642-.049.41.054.787-.046 1.246a3.636 3.636 0 01-.343.918c-.408.785-1.14 1.164-1.236 1.286.022.076.2.273.312.472.344.62.442 1.137.42 1.899-.02.701-.499 1.72-.98 2.087-.002.204.053.324.118.475l.332.807c.05.095.185.462.286.587l.197.223c.366.408.239.23.494.468l.302.242.01 1.918z" fill="#FEFEFE"/><path d="M22.428 33.528s.332 5.373-6.066 4.57C16.363 47.735 26 52 26 52s9.638-4.265 9.638-13.902c-6.398.803-6.065-4.57-6.065-4.57h-7.145z" fill="#9BA4D3"/><path d="M25.917 45.769l-3.877-2.686 1.08-1.579 2.465 1.69 2.907-3.435 1.468 1.246-4.043 4.764z" fill="#FEFEFE"/></g><defs><clipPath id="clip0"><path fill="#fff" d="M0 0h52v52H0z"/></clipPath></defs></svg>