<svg width="52" height="52" viewBox="0 0 52 52" fill="none" xmlns="http://www.w3.org/2000/svg"><g clip-path="url(#clip0)" fill-rule="evenodd" clip-rule="evenodd"><path d="M17.67 20.52c.768-.12 1.206.048 1.45.644.239.579.107 1.099-.478 1.416-.472.256-.945.495-1.405.731-.392.201-1.03.632-1.502.6-1.101-.074-2.06-1.608-1.346-2.447.396-.466 2.513-.824 3.282-.945zm13.72-7.718c.159-.184.554-.473.768-.636.247-.187.507-.414.949-.325.635.128 1.11.79 1.12 1.563-.45.037-.169-.107-.476-.614-.094.174-.076.496-.16.681-.177.052-.406.031-.555.125l1.173.288c-.107.736-.62.861-1.174 1.161-.21.115-1.327.741-1.474.742l-.144-1.368-.127.625-1.026-.037c.102.146.69.524.884.67l-.098.389c-.742.226-1.604-.688-1.317-1.41.209-.528.631-.91.976-1.242.093-.09.25-.275.339-.34.305.09.766.52 1.09.647-.11-.214-.649-.722-.748-.92zm-6.826-4.363c-.168-.306-.519-.63-.555-.81.33.085 1.82.85 2.027 1.039L25.025 9.83c.175-.028.847-.41 1.056-.52.52-.276.515-.397 1.011.014l-.373 1.416c.364-.531.72-1.077 1.08-1.593-.083-.232-.745-.798-.934-1.088l1.15-.284c.12 0 1.525.95 1.72 1.08.239.16.601.433.84.542a.272.272 0 01-.025.022l-.412.205c-1.72.746-3.204 1.505-4.882 2.298-.419.198-1.383.754-1.747.85-.044-.25-.138-.332-.015-.565.151-.286.676-1.154.724-1.35-.3.272-.687.736-.956.9l-.265-1.103-.285 2.518-4.548 2.492c-.39.208-.757.42-1.14.644l-3.333 1.93c-.103-.598-.11-1.412-.165-2.04-.11-1.278-.322-2.641.587-3.629.63-.684 3.207-2.28 3.92-2.646.936-.48.634-.388 1.636-.585.549-.109 1.317-.294 1.858-.339l-.734 1.935 1.211-1.743c.263-.379.394-.504.714-.765.172-.14.624-.598.778-.679l.211 1.426.213-.973.644.24zm.43-1.419l.054-.045c.006-.008.04-.04.046-.05.041-.064.065-.027.034-.157-.023-.095-.122-.154-.204-.2-.312-.18-.316-.006-.38.272-.255-.054-.925-.394-1.098-.296l-.773.706c-.147.134-.229.239-.377.363-.651.548-.096.37-1.614.607-.835.13-1.714.26-2.539.42-.669.128-3.047 1.738-3.73 2.186-.676.443-1.098.744-1.497 1.463-.936 1.686-.232 3.382-.275 5.248-.587-.292-.712-.497-1.437-.131-.829.418-2.106 1.427-1.037 2.27.42.333 1.258.136 1.844.112-.345.964-.56 1.452-.358 2.664.2 1.201 1.106 2.613 1.908 3.49.368.404.708.847 1.142 1.166.503.37.92 2.296 1.84 2.815.881.495 1.581.047 2.273-.334.609-.336 1.598-.728 1.928-1.16.782-1.025-.031-1.985-.098-2.311.404-.263 2.474-1.185 3.189-1.56 3.174-1.662 8.05-4.061 10.791-5.964l.997-.787c.347-.28 1.127-1.131 1.387-1.617.396-.741.266-1.12.093-1.952-.235-1.13-.787-2.653-1.344-3.441-.503-.711-1.661-1.772-2.948-1.861.106-.275.767-.867.887-1.272l-.407-.231a1.559 1.559 0 01-.085-.055l-.029-.023.558-.057c.031-.456-.417-.898-.895-.887-.367.008-1.15.267-1.435.43.024.268.229.51.3.763-.271-.173-.444-.353-.695-.52-.347.22-.366.554-.41 1.057-.128-.032-1.04-.682-1.215-.806-.415-.293-.824-.566-1.243-.849-.348-.235-.28-.17-.73-.028-.278.087-.528.163-.798.25-.27.086-.53.16-.799.245-.474.15-.353.177-.821.067z" fill="#9BA4D3"/><path d="M21.51.081c-.147.074-.369.113-.257.607.054.238.157.527.232.767.24.763.736.645 1.022.17.186-.308.716-.892.506-1.298-.154-.296-1.15-.423-1.503-.246zm3.669 4.987c.491.188.623.002 1.058-.245.45-.256.593-.53.109-.864-.228-.157-.716-.554-.986-.212-.184.233-.253 1.026-.181 1.321zm-4.417.639c-.072.049-.204.312-.217.41-.047.376.472 1.16.904.556.967-1.353-.663-.982-.687-.966z" fill="#DADBED"/><path d="M37.164 28.688c-.332-.35-.506-.428-.747-.988-.565-1.315-.312-3.099.17-4.334.563-1.444 1.75-3.338 3.529-3.378l-1.886-.583c-3.294-.902-6.259 7.197-2.833 8.604l1.767.679z" fill="#9BA4D3"/><path d="M39.812 21.35c1.684-.357 2.016 1.87 1.633 3.383-.168.66-.493 1.419-.843 1.89-1.968 2.65-3.995.718-3.216-2.204a5.866 5.866 0 01.848-1.883c.361-.533.906-1.043 1.578-1.185zm.18-1.236a2.703 2.703 0 00-1.278.573c-.18.144-.319.3-.476.435-1.286 1.106-2.328 4.258-1.722 6.273.91 3.029 4.448 1.5 5.474-2.468.263-1.016.37-2.205.07-3.225-.253-.867-.938-1.75-2.069-1.588z" fill="#9BA4D3"/><path d="M39.456 21.805l.144 1.663.407.13c.22-.206.34-.373.531-.58.214-.233.426-.37.567-.606-.18-.645-.946-1.088-1.649-.607zm-1.823 2.907c.283-.056.553-.126.829-.18.465-.093.29-.124.513-.498.245-.412-.015-1.276-.03-1.812-.608.433-1.14 1.518-1.312 2.49zm-.092.58c-.057.788.096 1.826.621 2.09.197-.262.31-.818.426-1.155.15-.434.353-.766.08-1.178l-1.127.243zm1.182 2.273c.49-.01.8-.264 1.077-.48.188-.15.578-.597.686-.879l-.684-.82c-.205.074-.09.04-.266.173-.135.102-.126.04-.209.192-.055.101-.16.467-.207.605-.125.37-.321.853-.397 1.21zm2.059-1.885c.39-.701.524-1.648.504-2.575-.173.047-.192.117-.308.252-.093.11-.16.186-.26.296-.556.608-.483.244-.639 1.088-.051.277.148.296.416.65.122.16.15.158.287.29zm-1.025-1.725c-.38-.064-.51.105-.647.369-.119.228-.214.747.05.894.457.256.892-.684.597-1.263z" fill="#9BA4D3"/><path d="M22.764 31.38c-.14.165-3.636 1.918-4.136 2.165-.672.332-1.398.84-2.293.873-.952.035-1.644-.496-2.436-.713l-3.64 8.456c-.148.367-.455.8-.455 1.207.456.196 1.924.79 2.364.847.001 0 1.406-1.248 3.033.285l.556.81.137-.138c1.336-1.475 3.292-.408 3.693 1.1.51-.178.61-.34 1.3-.297 1.27.08 2.19 1.04 2.083 2.484 1.2.022 2 .45 2.355 1.492.17.503.038.707.11 1.172 1.063.668 2.166 1.463 3.187.239.61-.73.078-1.03-.438-1.385-.282-.193-.418-.321-.709-.51-.279-.18-.48-.22-.408-.69.418-.294.62-.041.964.201.734.519 1.962 1.45 2.791 1.56.875.117 1.755-.477 1.84-1.097.096-.698-.85-1.205-1.322-1.529-.587-.401-1.158-.816-1.76-1.192-1.424-.892-.65-1.322.026-.859l3.444 2.36c.643.269.699.563 1.7.527.744-.11 1.865-.782 1.403-1.68-.376-.732-2.978-2.366-3.788-2.939L30.9 43.094c-.264-.186-.278-.316-.164-.642.524-.173.898.284 1.282.548.406.279.76.525 1.13.797.8.591 1.531 1.093 2.298 1.608.708.477 1.585 1.184 2.612 1.239.971.051 2.34-.872 1.656-1.852-.331-.474-5.89-4.102-6.824-4.78l-4.611-3.142c-.416-.283-.656-.567-1.31-.616-1.534-.114-1.975.975-2.388 1.52-1.603 2.112-4.241 1.962-5.046.535-.228-.406-.336-1.064-.154-1.575.107-.3.227-.299.45-.506.748-.694 1.777-1.65 2.38-2.494.295-.415.565-.788.883-1.1.282-.279 2.053-1.163 2.536-1.372-.203-.148-.693-.181-.965-.208-.388-.004-.748-.04-1.135.036-.328.065-.457.207-.766.29z" fill="#fff"/><path d="M39.586 31.358c-.157.146-.156.11-.373.164-.298.528-.3.276.027 1.243.16.474.31.869.465 1.33l2.777 7.926c.332.93.546 1.793 1.729 1.805.592.006 4.479-1.453 5.372-1.751 3.072-1.026 3.133-.766 2.63-2.156l-3.24-9.255c-.151-.432-.298-.818-.458-1.28-.175-.506-.246-.977-.912-.766l-5.329 1.86c-.435.153-2.382.872-2.688.88zm-26.117 1.436c.284-.655-.325-.794-.771-.978L6.212 29.07c-1.695-.685-1.51-.835-2.103.539-.744 1.729-1.458 3.455-2.203 5.17-.662 1.524-1.5 3.7-2.176 5.123-.31.65-.245.825.4 1.091l3.88 1.63c.864.377 1.724.734 2.617 1.1 1.193.487 1.944.37 2.442-.63.48-.961 1.726-3.997 2.213-5.161a435.44 435.44 0 012.187-5.137zm14.401-1.727c-.273.132-.746.256-1.073.398-.361.157-.68.332-1.03.507-3.334 1.663-1.662.861-4.236 3.584l-1.2 1.171c-.18.144-.294.145-.338.435-.255 1.679 2.8 2.464 4.393-.355.575-1.018 2.073-1.512 3.304-1.143.28.084.711.437.942.598.603.423 1.254.868 1.868 1.271l9.335 6.357c.142.044 2.04-.585 2.283-.778l-3.493-10.014c-.506.054-1.053.438-1.54.44-.173.172-.544.236-.781.319-.31.107-.52.203-.872.238-.767.075-1.163-.285-1.7-.565-.506-.264-.978-.514-1.517-.79-.34-.173-2.892-1.475-2.936-1.533-.7-.172-.635-.204-1.41-.14zM22.215 48.56c.295-.699-.263-1.982-1.59-1.889-.74.052-1.282.984-1.862 1.756-.928 1.237 1.705 2.49 2.714 1.173.168-.22.653-.84.738-1.04zm-6.649-1.475c.051.587 1.132 1.35 1.979 1.214.601-.097 1.516-.995 1.365-1.853-.123-.698-1.033-1.497-1.98-1.205-.358.11-1.408 1.343-1.364 1.844zm9.109 3.91c.345-.854-.401-1.561-1.008-1.761-.995-.328-1.339.335-1.73.893-.54.772.244 1.466.86 1.707.931.365 1.64-.25 1.878-.84zm-12.173-5.512c.132.448.849.928 1.326 1.098.744.263 1.43.01 1.264-.88-.287-1.551-3.015-1.653-2.59-.218z" fill="#DADBED"/></g><defs><clipPath id="clip0"><path fill="#fff" d="M0 0h52v52H0z"/></clipPath></defs></svg>