<svg width="81" height="73" viewBox="0 0 81 73" fill="none" xmlns="http://www.w3.org/2000/svg"><path d="M57.273 23.397l-7.239 8.13a4.589 4.589 0 01-1.62 1.116h3.671c1.279 0 2.498-.52 3.345-1.427l7.224-8.102c.074-.074.164-.148.253-.208h-4.519c-.401 0-.773.149-1.055.431l-.06.06zm-24.749 2.497v27.41c0 1.056.862 1.918 1.917 1.918a1.922 1.922 0 001.918-1.918v-27.47c.015-.505.133-1.01.371-1.456a3.287 3.287 0 011.561-1.487h-2.735c-1.68 0-3.032 1.353-3.032 3.003z" fill="#393D5D"/><path d="M17.48 36.24c2.17 4.46 5.56 8.16 9.826 10.688v-3.211c0-.877-.386-1.71-1.04-2.274a21.407 21.407 0 01-7.448-16.218c0-5.723 2.26-11.089 6.348-15.147 4.087-4.043 9.483-6.258 15.206-6.198a21.19 21.19 0 0112.204 3.954 21.33 21.33 0 017.596 9.855 2.778 2.778 0 002.304-1.353c.505-.847.55-1.873.089-2.75-2.408-4.608-6.273-8.458-10.896-10.821A25.031 25.031 0 0040.194 0a26.93 26.93 0 00-4.46.386c-4.623.788-9.305 3.375-13.2 7.27-3.88 3.894-6.45 8.591-7.224 13.214-.877 5.321-.133 10.628 2.17 15.37z" fill="#393D5D"/><path d="M39.644 22.877c-1.1 0-2.096.58-2.616 1.53l6.808 6.809c.817.907 1.887 1.412 3.017 1.412.996 0 1.962-.372 2.72-1.07l-7.848-7.849a2.998 2.998 0 00-2.081-.832zm24.244.014a1.45 1.45 0 00-1.026.417l-.059.059-1.249 1.397v.461c0 10.346-7.372 19.19-17.54 21.019a2.982 2.982 0 00-2.453 2.943v1.219a25.091 25.091 0 0016.872-7.76 25.147 25.147 0 007.001-17.436c0-.282 0-.594-.015-.951-.074-.758-.743-1.368-1.53-1.368zM10.063 63.962c-.178-2.497-2.185-4.504-4.667-4.667a4.947 4.947 0 00-3.79 1.338A5.077 5.077 0 000 64.304v7.76c0 .505.416.921.922.921h.074v-5.648a5.013 5.013 0 004.043 2.021c1.397 0 2.735-.58 3.687-1.605a4.927 4.927 0 001.337-3.79zm-4.756 4.4a4.06 4.06 0 01-3.122-1.174 4.06 4.06 0 01-1.174-3.122 4.06 4.06 0 013.775-3.775c.09 0 .179-.015.253-.015 1.07 0 2.096.416 2.869 1.19a4.06 4.06 0 011.174 3.12 4.06 4.06 0 01-3.775 3.776zm17.361-4.042a5.03 5.03 0 00-1.605-3.687 4.947 4.947 0 00-3.79-1.338c-2.498.178-4.504 2.185-4.668 4.667a5.003 5.003 0 001.338 3.79 5.085 5.085 0 003.686 1.606c1.59 0 3.092-.758 4.043-2.021v1.828h.075a.926.926 0 00.921-.922V64.32zm-1.01.267a4.06 4.06 0 01-3.776 3.775 4.06 4.06 0 01-3.122-1.174 4.061 4.061 0 01-1.174-3.122 4.06 4.06 0 013.776-3.775c.089 0 .178-.015.252-.015a4.04 4.04 0 012.87 1.19 4.061 4.061 0 011.174 3.12zm28.822-.447c-.09-2.69-2.334-4.86-5.039-4.86-1.59 0-3.092.758-4.043 2.021v-1.813h-.075a.926.926 0 00-.921.922v7.833c0 .506.416.922.922.922h.074v-4.772c0-2.096 1.739-3.983 3.79-4.102 1.13-.075 2.2.312 3.018 1.085a4.015 4.015 0 011.278 2.943v4.846h.074a.926.926 0 00.922-.922v-4.102zm2.631 1.264c0 .03.015.06.015.09l.015.059h.015c-.015-.045-.03-.09-.045-.149zm9.841-2.141c-.535-2.452-2.735-4.117-5.262-3.954a5.06 5.06 0 00-4.698 4.668c-.03.476 0 .936.104 1.397l.06.015h.015c.03 0 .044.015.074.015.074.015.149.03.223.03.134 0 .282 0 .446-.015.045 0 .09-.015.119-.015h.074a4.205 4.205 0 01-.148-1.055c0-.194.014-.372.044-.565h8.518c.118 0 .237-.06.312-.149.119-.119.148-.253.119-.372zm-8.637-.505a4.02 4.02 0 013.717-2.468c1.635 0 3.091.967 3.716 2.468h-7.433zm-.415 2.795h-.016c-.074 0-.148.014-.208.014s-.089 0-.134.015h-.029a.84.84 0 00-.268-.044c.03.104.06.208.104.312.461 1.263 1.412 2.274 2.706 2.854a5.725 5.725 0 004.43.134 5.276 5.276 0 002.244-1.62.73.73 0 00.148-.625.787.787 0 00-.386-.535c-.476.936-1.308 1.665-2.349 2.051-2.289.877-4.935-.133-5.886-2.244-.045-.12-.104-.238-.149-.372h-.03c-.044.045-.103.045-.178.06z" fill="#393D5D"/><path d="M53.498 65.597h.03c.044 0 .074-.015.133-.015.06-.015.134-.015.208-.015h.015c.075-.015.134-.03.194-.03h.03c-.016-.03-.016-.044-.03-.074-.045 0-.09.015-.134.015-.015 0-.045.015-.06.015a1.01 1.01 0 00-.223.03c-.044 0-.089 0-.133.014a.987.987 0 00-.313-.044c0 .03.015.044.015.074a.55.55 0 01.268.03z" fill="#393D5D"/><path d="M53.646 65.508c.075-.015.149-.03.223-.03.015 0 .045-.015.06-.015-.179.015-.327.03-.461.015-.09 0-.178-.015-.283-.03v.015a.99.99 0 01.313.045h.148zm-.55-.148l.015.044c0-.015 0-.03-.015-.045z" fill="#393D5D"/><path d="M54.167 65.523h-.03l.134.357c.951 2.096 3.552 3.092 5.827 2.23 1.085-.417 1.888-1.175 2.348-2.082.461.253.595.833.283 1.234a5.457 5.457 0 01-2.26 1.635c-2.869 1.1-6.169-.253-7.18-3.017-.044-.104-.074-.223-.103-.327h-.045c.03.119.06.223.104.341.461 1.279 1.442 2.304 2.735 2.9a5.9 5.9 0 002.408.52 5.93 5.93 0 002.081-.387 5.4 5.4 0 002.275-1.635.768.768 0 00.163-.684c-.044-.253-.223-.476-.46-.61l-.03-.014-.015.03c-.461.936-1.294 1.664-2.32 2.05-2.258.863-4.845-.133-5.782-2.2a2.758 2.758 0 01-.163-.46l-.015-.03c0 .015.015.045.015.06l.03.089zm-.684-.104c-.075 0-.149-.015-.223-.03.089 0 .178.015.267.045.045 0 .075-.015.12-.015.059-.015.133-.015.222-.03.03 0 .045-.015.06-.015-.164.045-.313.045-.446.045z" fill="#393D5D"/><path d="M54.063 65.39c0 .014 0 .029.014.029h.045c.015.03.03.074.03.104h.03l-.03-.09c0-.014-.015-.044-.015-.059h-.03c-.015.015-.03.015-.044.015zm-.907.014h.044c0-.015 0-.03-.014-.045h-.015l-.06-.014c0 .014 0 .03.015.044v.015c.015.044.03.09.03.134h.044a.24.24 0 01-.044-.134z" fill="#393D5D"/><path d="M53.483 65.448c.193 0 .386-.014.594-.03 0-.014 0-.03-.015-.03-.044 0-.089.016-.119.016-.014 0-.044 0-.059.015a.898.898 0 00-.223.03c-.045 0-.09 0-.119.014a.843.843 0 00-.267-.044c-.03 0-.045-.015-.075-.015 0 .015 0 .03.015.044.074-.014.164 0 .268 0zm.757.447c.952 2.11 3.583 3.121 5.887 2.244a4.441 4.441 0 002.349-2.051.781.781 0 01.238 1.16 5.368 5.368 0 01-2.245 1.62 5.791 5.791 0 01-4.43-.134c-1.278-.58-2.244-1.606-2.705-2.854-.03-.104-.074-.208-.104-.312h-.045c.03.104.06.222.105.327.995 2.764 4.31 4.117 7.18 3.017a5.24 5.24 0 002.259-1.635c.327-.401.193-.981-.283-1.234-.46.907-1.263 1.665-2.348 2.081-2.275.877-4.89-.119-5.827-2.23-.06-.118-.09-.237-.134-.356h-.045c.06.119.104.252.149.357z" fill="#393D5D"/><path d="M53.23 65.552c0-.03-.015-.044-.015-.074 0-.015 0-.03-.015-.06h-.044l.044.134h.03zm.714-.074c.044 0 .089-.015.134-.015 0 .03.014.045.03.074h.044a.275.275 0 01-.03-.104h-.044c0 .015 0 .015.014.03-.059 0-.104 0-.148.015z" fill="#393D5D"/><path d="M53.483 65.449a1.02 1.02 0 01-.297-.045c0 .015 0 .03.014.06v-.015c.09.014.194.03.283.03.134 0 .282 0 .46-.016.045-.014.09-.014.134-.014 0-.015 0-.015-.014-.03-.194.03-.402.044-.58.03zM30.22 59.28c-1.59 0-3.092.758-4.043 2.021v-1.828h-.075a.926.926 0 00-.921.922v7.848c0 .506.416.922.921.922h.075v-4.876c.015-1.932 1.397-3.597 3.3-3.939.475-.09.817-.505.817-.996v-.074h-.074zm6.748 4.34c.52 0 .936-.416.936-.936v-.075h-4.117v-4.101h-.074a.933.933 0 00-.937.936v3.181h-.06a.926.926 0 00-.92.922v.074h.98v.714c0 2.78 2.26 5.039 5.054 5.039h.075v-.075c0-.49-.342-.906-.818-.995a4.032 4.032 0 01-3.3-3.97v-.713h3.181zm33.55-4.34a5.08 5.08 0 00-4.044 2.021v-1.828H66.4a.926.926 0 00-.922.922v7.848c0 .506.417.922.922.922h.074v-4.876c.015-1.932 1.398-3.597 3.3-3.939.476-.09.818-.505.818-.996v-.074h-.074zm6.317 4.653c-1.516-.283-2.943-.535-2.943-1.888 0-.535.267-1.799 2.75-1.799.728 0 1.412.12 2.021.357a1.137 1.137 0 001.308-.386c-.802-.506-2.125-.833-3.33-.833-2.303 0-3.805 1.055-3.805 2.705 0 2.052 1.844 2.394 3.627 2.706 1.472.267 2.854.505 2.854 1.798 0 .818-.49 1.784-2.824 1.784a6.61 6.61 0 01-2.676-.58 1.063 1.063 0 00-1.293.342c.862.67 2.393 1.115 3.865 1.115 2.453 0 3.969-1.04 3.969-2.705.03-1.962-1.784-2.29-3.523-2.616z" fill="#393D5D"/></svg>