<svg width="144" height="42" viewBox="0 0 144 42" fill="none" xmlns="http://www.w3.org/2000/svg"><path d="M31.748 17.463l-5.403 6.069a3.426 3.426 0 01-1.21.832h2.74a3.42 3.42 0 002.497-1.065l5.392-6.047a1.3 1.3 0 01.189-.155H32.58c-.3 0-.577.11-.788.322l-.044.044zm-18.473 1.864v20.458c0 .788.644 1.432 1.431 1.432.788 0 1.432-.644 1.432-1.432V19.283a2.468 2.468 0 011.442-2.197h-2.041a2.254 2.254 0 00-2.264 2.24z" fill="#fff"/><path d="M2.047 27.049a18.793 18.793 0 007.334 7.977v-2.397a2.25 2.25 0 00-.777-1.697 15.978 15.978 0 01-5.558-12.104c0-4.272 1.686-8.277 4.737-11.306 3.051-3.018 7.079-4.67 11.35-4.626a15.816 15.816 0 019.109 2.95 15.92 15.92 0 015.67 7.357c.71-.022 1.353-.4 1.719-1.01.377-.632.41-1.398.066-2.053-1.797-3.439-4.682-6.312-8.132-8.076A18.683 18.683 0 0019 0c-1.098 0-2.208.1-3.328.288-3.45.588-6.946 2.519-9.852 5.426C2.924 8.62 1.004 12.126.428 15.577c-.655 3.972-.1 7.933 1.62 11.472z" fill="#fff"/><path d="M18.59 17.075c-.822 0-1.565.432-1.953 1.143l5.081 5.08c.61.678 1.41 1.055 2.252 1.055.744 0 1.465-.278 2.03-.799l-5.857-5.858a2.237 2.237 0 00-1.553-.621zm18.095.011c-.289 0-.566.11-.766.31l-.044.045-.932 1.043v.344c0 7.721-5.503 14.323-13.092 15.687a2.226 2.226 0 00-1.83 2.197v.91a18.728 18.728 0 0012.592-5.791 18.77 18.77 0 005.226-13.014c0-.211 0-.444-.011-.71a1.153 1.153 0 00-1.143-1.021zm27.667 1.068c-.202-2.817-2.465-5.08-5.265-5.265a5.58 5.58 0 00-4.276 1.509A5.724 5.724 0 0053 18.54v8.752c0 .57.47 1.04 1.04 1.04h.083V21.96a5.655 5.655 0 004.561 2.28 5.672 5.672 0 004.159-1.81 5.557 5.557 0 001.509-4.276zm-5.366 4.963a4.581 4.581 0 01-3.521-1.325 4.581 4.581 0 01-1.325-3.52 4.58 4.58 0 014.26-4.26c.1 0 .2-.016.284-.016 1.207 0 2.364.47 3.236 1.341a4.58 4.58 0 011.325 3.521 4.58 4.58 0 01-4.259 4.26zm19.584-4.561a5.672 5.672 0 00-1.81-4.158 5.58 5.58 0 00-4.276-1.51c-2.817.202-5.08 2.466-5.265 5.266a5.643 5.643 0 001.509 4.276 5.736 5.736 0 004.158 1.81 5.726 5.726 0 004.561-2.28v2.063h.084c.57 0 1.04-.47 1.04-1.04v-4.427zm-1.14.302a4.58 4.58 0 01-4.259 4.26 4.581 4.581 0 01-3.52-1.325 4.58 4.58 0 01-1.325-3.522 4.58 4.58 0 014.258-4.259c.101 0 .202-.016.285-.016a4.56 4.56 0 013.237 1.341 4.58 4.58 0 011.324 3.521zm32.512-.503c-.1-3.035-2.632-5.483-5.684-5.483a5.726 5.726 0 00-4.56 2.28v-2.045h-.084c-.57 0-1.04.47-1.04 1.04v8.836c0 .57.47 1.04 1.04 1.04h.084V18.64c0-2.364 1.961-4.494 4.275-4.628a4.472 4.472 0 013.404 1.224 4.53 4.53 0 011.442 3.32v5.466h.084c.57 0 1.039-.47 1.039-1.04v-4.627zm2.968 1.425c0 .034.017.067.017.1l.017.068h.017c-.017-.05-.034-.1-.051-.168zm11.1-2.414c-.603-2.767-3.085-4.645-5.935-4.46-2.817.184-5.098 2.447-5.299 5.264-.033.537 0 1.057.118 1.576l.067.017h.016c.034 0 .051.017.084.017.084.017.168.034.252.034.151 0 .318 0 .503-.017.05 0 .1-.017.134-.017h.084a4.727 4.727 0 01-.168-1.19c0-.218.017-.42.05-.638h9.608a.472.472 0 00.352-.167c.134-.134.168-.285.134-.42zm-9.742-.57a4.535 4.535 0 014.192-2.784 4.516 4.516 0 014.192 2.783h-8.384zm-.469 3.152h-.017c-.084 0-.168.017-.235.017-.067 0-.1 0-.15.017h-.034a.949.949 0 00-.302-.05c.034.117.067.234.118.351.519 1.425 1.592 2.566 3.051 3.22a6.458 6.458 0 004.997.15c1.006-.385 1.895-1.022 2.532-1.827a.822.822 0 00.167-.704.888.888 0 00-.435-.604c-.537 1.056-1.476 1.878-2.65 2.314-2.582.99-5.567-.151-6.64-2.532-.05-.134-.117-.268-.167-.42H114c-.05.051-.117.051-.201.068z" fill="#fff"/><path d="M113.346 19.998h.034c.05 0 .084-.017.151-.017.067-.017.151-.017.234-.017h.017c.084-.016.151-.033.218-.033h.034c-.017-.034-.017-.05-.034-.084-.05 0-.1.017-.151.017-.017 0-.05.017-.067.017-.084 0-.184.016-.251.033a.46.46 0 00-.151.017 1.114 1.114 0 00-.352-.05c0 .033.016.05.016.083a.624.624 0 01.302.034z" fill="#fff"/><path d="M113.514 19.897c.084-.016.168-.033.251-.033.017 0 .051-.017.067-.017-.201.017-.368.034-.519.017-.101 0-.202-.017-.319-.034v.017c.134 0 .252.017.352.05h.168zm-.62-.167l.016.05c0-.017 0-.034-.016-.05z" fill="#fff"/><path d="M114.101 19.914h-.034l.151.403c1.073 2.364 4.008 3.487 6.573 2.515 1.224-.47 2.129-1.325 2.649-2.348.52.285.671.94.319 1.392-.637.788-1.493 1.425-2.549 1.845-3.236 1.24-6.958-.286-8.099-3.404-.05-.118-.083-.252-.117-.37h-.05c.033.135.067.252.117.386.52 1.443 1.627 2.6 3.085 3.27a6.658 6.658 0 002.717.587c.788 0 1.593-.15 2.347-.436a6.093 6.093 0 002.566-1.844.868.868 0 00.184-.772c-.05-.285-.252-.536-.52-.687l-.033-.017-.017.034c-.52 1.056-1.459 1.878-2.616 2.314-2.548.972-5.466-.151-6.522-2.482a3.173 3.173 0 01-.185-.52l-.017-.033c0 .016.017.05.017.067l.034.1zm-.772-.117c-.083 0-.167-.017-.251-.034.101 0 .201.017.302.05.05 0 .084-.016.134-.016.067-.017.151-.017.251-.034.034 0 .051-.016.067-.016-.184.05-.352.05-.503.05z" fill="#fff"/><path d="M113.983 19.763c0 .017 0 .034.017.034h.05a.307.307 0 01.034.117h.034l-.034-.1c0-.017-.017-.05-.017-.067h-.033c-.017.016-.034.016-.051.016zm-1.022.017h.05c0-.017 0-.034-.017-.05h-.017l-.067-.017c0 .017 0 .033.017.05v.017c.017.05.034.1.034.15h.05a.266.266 0 01-.05-.15z" fill="#fff"/><path d="M113.329 19.83c.218 0 .436-.016.671-.033 0-.017 0-.034-.017-.034-.05 0-.1.017-.134.017-.017 0-.05 0-.067.017-.1 0-.184.017-.251.033-.051 0-.101 0-.134.017a.956.956 0 00-.302-.05c-.034 0-.051-.017-.084-.017 0 .017 0 .034.017.05.083-.016.184 0 .301 0zm.856.504c1.073 2.38 4.041 3.52 6.64 2.532 1.173-.453 2.095-1.275 2.649-2.314a.882.882 0 01.268 1.308 6.056 6.056 0 01-2.532 1.827 6.534 6.534 0 01-4.997-.15c-1.442-.655-2.531-1.812-3.051-3.22-.034-.118-.084-.235-.118-.352h-.05c.034.117.067.251.117.369 1.124 3.118 4.863 4.644 8.099 3.403a5.91 5.91 0 002.549-1.844c.369-.453.218-1.107-.319-1.392-.52 1.023-1.425 1.878-2.649 2.348-2.565.989-5.517-.134-6.573-2.515-.067-.135-.1-.269-.151-.403h-.05c.067.134.117.285.168.403z" fill="#fff"/><path d="M113.044 19.948c0-.034-.016-.05-.016-.084 0-.017 0-.034-.017-.067h-.05l.05.15h.033zm.805-.084c.051 0 .101-.017.151-.017 0 .034.017.05.034.084h.05a.307.307 0 01-.034-.117H114c0 .016 0 .016.017.033-.067 0-.117 0-.168.017z" fill="#fff"/><path d="M113.329 19.83c-.117 0-.218-.016-.335-.05 0 .017 0 .034.017.067v-.017c.1.017.218.034.318.034.151 0 .319 0 .52-.017.051-.017.101-.017.151-.017 0-.016 0-.016-.017-.033a2.9 2.9 0 01-.654.033zm-26.241-6.958a5.726 5.726 0 00-4.56 2.28V13.09h-.084c-.57 0-1.04.47-1.04 1.04v8.853c0 .57.47 1.04 1.04 1.04h.084v-5.5c.016-2.18 1.576-4.058 3.722-4.444.537-.1.922-.57.922-1.123v-.084h-.084zm7.612 4.896c.588 0 1.057-.47 1.057-1.056v-.084h-4.645V12h-.083c-.587 0-1.057.47-1.057 1.056v3.589h-.067c-.57 0-1.04.47-1.04 1.04v.083h1.107v.805c0 3.135 2.549 5.684 5.701 5.684h.084v-.084c0-.553-.386-1.023-.922-1.123a4.548 4.548 0 01-3.722-4.477v-.805H94.7zm37.845-4.896a5.726 5.726 0 00-4.561 2.28V13.09h-.084c-.57 0-1.039.47-1.039 1.04v8.853c0 .57.469 1.04 1.039 1.04h.084v-5.5c.017-2.18 1.576-4.058 3.723-4.444.536-.1.922-.57.922-1.123v-.084h-.084zm7.126 5.248c-1.71-.318-3.32-.603-3.32-2.13 0-.603.302-2.028 3.102-2.028.822 0 1.593.134 2.281.402a1.28 1.28 0 001.475-.436c-.905-.57-2.398-.939-3.756-.939-2.599 0-4.292 1.191-4.292 3.052 0 2.314 2.079 2.7 4.091 3.052 1.66.302 3.219.57 3.219 2.029 0 .922-.553 2.012-3.185 2.012a7.463 7.463 0 01-3.019-.654 1.199 1.199 0 00-1.458.386c.972.754 2.699 1.257 4.359 1.257 2.767 0 4.477-1.174 4.477-3.052.034-2.213-2.012-2.582-3.974-2.95z" fill="#fff"/></svg>