<svg width="38" height="42" viewBox="0 0 38 42" fill="none" xmlns="http://www.w3.org/2000/svg"><path d="M31.748 17.463l-5.403 6.069a3.426 3.426 0 01-1.21.832h2.74a3.42 3.42 0 002.497-1.065l5.392-6.047a1.3 1.3 0 01.189-.155H32.58c-.3 0-.577.11-.788.322l-.044.044zm-18.473 1.864v20.458c0 .788.644 1.432 1.431 1.432.788 0 1.432-.644 1.432-1.432V19.283a2.468 2.468 0 011.442-2.197h-2.041a2.254 2.254 0 00-2.264 2.24z" fill="#fff"/><path d="M2.047 27.049a18.793 18.793 0 007.334 7.977v-2.397a2.25 2.25 0 00-.777-1.697 15.978 15.978 0 01-5.558-12.104c0-4.272 1.686-8.277 4.737-11.306 3.051-3.018 7.079-4.67 11.35-4.626a15.816 15.816 0 019.109 2.95 15.92 15.92 0 015.67 7.357c.71-.022 1.353-.4 1.719-1.01.377-.632.41-1.398.066-2.053-1.797-3.439-4.682-6.312-8.132-8.076A18.683 18.683 0 0019 0c-1.098 0-2.208.1-3.328.288-3.45.588-6.946 2.519-9.852 5.426C2.924 8.62 1.004 12.126.428 15.577c-.655 3.972-.1 7.933 1.62 11.472z" fill="#fff"/><path d="M18.59 17.075c-.822 0-1.565.432-1.953 1.143l5.081 5.08c.61.678 1.41 1.055 2.252 1.055.744 0 1.465-.278 2.03-.799l-5.857-5.858a2.237 2.237 0 00-1.553-.621zm18.095.011c-.289 0-.566.11-.766.31l-.044.045-.932 1.043v.344c0 7.721-5.503 14.323-13.092 15.687a2.226 2.226 0 00-1.83 2.197v.91a18.728 18.728 0 0012.592-5.791 18.77 18.77 0 005.226-13.014c0-.211 0-.444-.011-.71a1.153 1.153 0 00-1.143-1.021z" fill="#fff"/></svg>